<svg width="14" height="14" viewBox="0 0 14 14" fill="none" xmlns="http://www.w3.org/2000/svg">
<path d="M0.75 7.25005V12.9375C0.75 13.2141 0.973437 13.4375 1.25 13.4375H2.26562V6.75005H1.25C0.973437 6.75005 0.75 6.97349 0.75 7.25005ZM12.8422 7.33911C13.1047 6.99224 13.25 6.56724 13.25 6.12505C13.25 5.42349 12.8578 4.75786 12.2266 4.39067C12.0641 4.29535 11.879 4.24519 11.6906 4.24536H7.94219L8.03594 2.32505C8.05937 1.86099 7.89531 1.42036 7.575 1.08442C7.4187 0.918679 7.23 0.786828 7.02061 0.697053C6.81123 0.607279 6.58563 0.561497 6.35781 0.562548C5.54531 0.562548 4.82656 1.10942 4.61094 1.89224L3.27031 6.74849L3.26562 13.436H10.6422C10.7875 13.436 10.9266 13.4079 11.0562 13.3516C11.8 13.0344 12.2797 12.3079 12.2797 11.5016C12.2797 11.3047 12.2516 11.111 12.1953 10.9235C12.4578 10.5766 12.6031 10.1516 12.6031 9.70942C12.6031 9.51255 12.575 9.3188 12.5188 9.1313C12.7812 8.78442 12.9266 8.35942 12.9266 7.91724C12.9266 7.72036 12.8984 7.52661 12.8422 7.33911ZM11.8188 6.79692L11.4766 7.0938L11.6953 7.49224C11.7669 7.62297 11.804 7.76976 11.8031 7.9188C11.8031 8.17661 11.6922 8.42192 11.4969 8.59067L11.1547 8.88755L11.3719 9.28442C11.4434 9.41516 11.4805 9.56195 11.4797 9.71099C11.4797 9.9688 11.3687 10.2141 11.1734 10.3829L10.8313 10.6797L11.0484 11.0766C11.12 11.2073 11.1571 11.3541 11.1562 11.5032C11.1562 11.8532 10.95 12.1688 10.6313 12.3125H4.39062V6.9188C4.68125 5.8688 5.11562 4.2938 5.69531 2.19224C5.73581 2.04809 5.82198 1.92098 5.94087 1.82998C6.05977 1.73898 6.20497 1.689 6.35469 1.68755C6.47188 1.68599 6.58906 1.72192 6.68437 1.79224C6.83906 1.90786 6.92188 2.08286 6.9125 2.2688L6.7625 5.3688H11.675C11.9531 5.53911 12.125 5.82661 12.125 6.12505C12.125 6.38286 12.0141 6.62817 11.8188 6.79692Z" fill="#1890FF"/>
</svg>
